<svg xmlns="http://www.w3.org/2000/svg" width="63.803" height="67.284"><g data-name="Group 11" fill="#163045"><path data-name="Path 8324" d="M52.018 45.758l-5.347-10.692a3.481 3.481 0 00.064-3.224 3.435 3.435 0 00-1.4-1.474 3.522 3.522 0 00-.735-.3l-1.5-2.895a9.269 9.269 0 00-15.813-1.288 9.273 9.273 0 00-18.011 3.116v3.237a3.439 3.439 0 00-1.16 2.566 3.48 3.48 0 003.48 3.48h1.276a5.744 5.744 0 001.044 2.284v4.792A15.73 15.73 0 000 60.954v5.169a1.16 1.16 0 001.16 1.16h61.483a1.16 1.16 0 001.16-1.16v-5.169a15.729 15.729 0 00-11.785-15.196zm-2.825-.464c-.365-.025-.73-.055-1.1-.055h-1.14l-2.825-5.651a5.756 5.756 0 00-.09-2.509l.839-.419zm-19.032-2.347a3.446 3.446 0 002.567-.21l1.143-.572a5.7 5.7 0 001.953 1.578l1.223 2.445a15.532 15.532 0 00-5.153 3.1 16.089 16.089 0 00-1.733-1.375zm-.027-2.81a1.161 1.161 0 01.518-1.556l1.037-.519 1.038 2.076-1.037.519a1.16 1.16 0 01-1.555-.519zm5.188 0l-1.7-3.4 4.219-4.219 1.508.116 2.2 4.393a3.48 3.48 0 01-6.221 3.113zm5.706 3.631a5.733 5.733 0 001.856-1.477l1.471 2.95h-1.962a15.994 15.994 0 00-3.073.3l-.586-1.171a5.771 5.771 0 002.295-.6zm2.672-11.53a1.189 1.189 0 01.494.148 1.162 1.162 0 01-.054 2.048l-1.044.518-.348-.7-.662-1.32zm-12.01-7.141a6.973 6.973 0 019.346 3.127l1.116 2.16-.3.131v-.013l-4.366-.335a1.184 1.184 0 00-.909.336l-5.053 5.053-1.908.955-1.039-2.073a6.968 6.968 0 013.113-9.341zm-4.13 12.494l.253.5.028-.014v.565a3.449 3.449 0 000 1.972v6.024a15.533 15.533 0 00-4.64-1.276V40.57a5.744 5.744 0 001.044-2.284h1.276a3.459 3.459 0 002.039-.695zm-1.06-2.133l-.012-.008a1.161 1.161 0 01-.962.511h-1.16V34.09l1.8.6c.095.258.203.515.334.768zm-13.735.5H11.6a1.16 1.16 0 01-1.16-1.16 1.163 1.163 0 00.6-.164l1.723-1.036zm-1.16-4.37v-2.59a6.96 6.96 0 1113.921 0v3.03l-8.914-2.97a1.155 1.155 0 00-.964.106zm6.96 9.01a3.48 3.48 0 01-3.48-3.48v-4.912l1.3-.779 5.661 1.886v3.8a3.48 3.48 0 01-3.485 3.489zm2.32 1.828v2.812h-4.64v-2.812a5.721 5.721 0 004.636.004zM34.8 64.963H29v-5.8h-2.32v5.8H9.28v-5.8H6.96v5.8H2.32v-4.009a13.408 13.408 0 0113.392-13.392h5.7A13.408 13.408 0 0134.8 60.954zm26.681 0h-4.64v-5.8h-2.32v5.8h-17.4v-4.009a15.638 15.638 0 00-3.61-10.008 13.253 13.253 0 018.881-3.384h5.7a13.408 13.408 0 0113.392 13.392z"/><path data-name="Path 8325" d="M32.411 3.551a4.536 4.536 0 00-3.558 1.711l-1.056 1.327-1.059-1.324a4.555 4.555 0 00-7.632.8l-.156.313a4.577 4.577 0 001 5.4l7.068 6.478a1.159 1.159 0 001.568 0l7.067-6.478a4.578 4.578 0 001-5.4l-.154-.309a4.532 4.532 0 00-4.088-2.518zm1.666 6.515l-6.28 5.762-6.283-5.759a2.245 2.245 0 01-.491-2.644l.156-.312a2.233 2.233 0 013.745-.4l1.972 2.456a1.2 1.2 0 001.81 0l1.972-2.457a2.233 2.233 0 013.745.4l.155.309a2.247 2.247 0 01-.501 2.648z"/><path data-name="Path 8326" d="M45.242 0h2.32v2.32h-2.32z"/><path data-name="Path 8327" d="M45.242 6.96h2.32v2.32h-2.32z"/><path data-name="Path 8328" d="M41.762 3.48h2.32V5.8h-2.32z"/><path data-name="Path 8329" d="M48.723 3.48h2.32V5.8h-2.32z"/><path data-name="Path 8330" d="M4.64 9.281h2.32v2.32H4.64z"/><path data-name="Path 8331" d="M4.64 18.561h2.32v2.32H4.64z"/><path data-name="Path 8332" d="M0 13.921h2.32v2.32H0z"/><path data-name="Path 8333" d="M9.281 13.921h2.32v2.32h-2.32z"/></g></svg>