<svg xmlns="http://www.w3.org/2000/svg" width="62.4" height="64.329"><g fill="#163045"><path data-name="Path 8358" d="M61.827 10.845L41.456.123a1.073 1.073 0 00-.5-.123h-8.844a4.025 4.025 0 00-4.021 4.021v4.557a1.072 1.072 0 001.072 1.072v3.216a1.072 1.072 0 001.072 1.072V26.8a5.36 5.36 0 00-3.216 1.074 5.359 5.359 0 00-8.231 2.392l-.992-.11-10.478-8.38a1.072 1.072 0 00-1.687.5L.063 38.514a1.072 1.072 0 00.353 1.212l5.714 4.416a10.044 10.044 0 006.673 5.24l7.282 5.645a3.331 3.331 0 005.248-1.591l3.322 2.658a3.331 3.331 0 005.315-1.8 3.314 3.314 0 003.25-.727 4.289 4.289 0 007.8-3.465 6.436 6.436 0 001.247-11.741 7.431 7.431 0 00.047-.833 7.518 7.518 0 00-5.361-7.191v-16.4a1.072 1.072 0 001.072-1.072v-2.428L60.791 21.3a1.072 1.072 0 001.609-.928v-8.578a1.072 1.072 0 00-.573-.949zm-21.942-1.2v2.144h-8.58v-2.14zM7.179 24.411l9.521 7.617a1.073 1.073 0 00.551.228l7.773.864a3.742 3.742 0 012.421 1.272l11.265 13a1.283 1.283 0 01-1.877 1.748l-.048-.045-8.865-7.814-2.05-5.125a1.073 1.073 0 10-1.991.8l2.144 5.361.006.013a1.067 1.067 0 00.278.392l3.931 3.48a1.527 1.527 0 01-.226 1.928 1.467 1.467 0 01-1.94.121l-5.709-4.995a1.073 1.073 0 00-.7-.265 5.941 5.941 0 01-5.284-3.239 1.065 1.065 0 00-.367-.419l-11.3-7.5zm24.4 29.92a1.187 1.187 0 01-1.583.088l-6.241-4.993L16.974 44a1.072 1.072 0 10-1.34 1.674l7.271 5.818a1.188 1.188 0 11-1.485 1.856l-.013-.01-7.493-5.808a1.065 1.065 0 00-.537-.217 7.883 7.883 0 01-5.421-4.322 1.073 1.073 0 00-.314-.392l-5.294-4.092 1.65-4.582 10.595 7.036a8.111 8.111 0 006.652 4.157l5.438 4.758.036.03a3.6 3.6 0 002.257.793c.073 0 .145 0 .218-.007l2.288 1.872a1.187 1.187 0 01.1 1.768zm2.647-2.288l-1.132-.91a3.259 3.259 0 00-.265-.237l-1.409-1.153.11-.1a3.716 3.716 0 00.915-1.521l2.9 2.561a3.415 3.415 0 00.8.583 1.187 1.187 0 01-1.918.78zm9.948-14.518a5.394 5.394 0 01-.139 1.21 1.072 1.072 0 00.649 1.237 4.289 4.289 0 01-1.384 8.269 1.072 1.072 0 00-.748 1.788 2.144 2.144 0 11-3.738 1.455 3.4 3.4 0 001.351-.83 3.44 3.44 0 00.166-4.669l-11.265-13a5.879 5.879 0 00-3.8-2l-4.221-.469a3.213 3.213 0 015.175-.481 1.072 1.072 0 001.608 0 3.216 3.216 0 015.629 2.126 3.26 3.26 0 01-.033.456 1.072 1.072 0 001.784.942 5.361 5.361 0 018.97 3.963zm-5.362-7.505a7.515 7.515 0 00-2.144.312V26.8a1.072 1.072 0 10-2.144 0v2.15a5.39 5.39 0 00-2.144-1.7V13.938h2.144v3.216a1.072 1.072 0 002.144 0v-3.216h2.144zm21.444-11.509L41.494 7.649a1.072 1.072 0 00-.537-.144H30.235V4.021a1.878 1.878 0 011.876-1.876h8.58l19.564 10.3z"/><path data-name="Path 8359" d="M35.596 20.371a1.072 1.072 0 00-1.072 1.072v1.072a1.072 1.072 0 002.144 0v-1.072a1.072 1.072 0 00-1.072-1.072z"/><path data-name="Path 8360" d="M21.658 24.66a3.216 3.216 0 10-3.216-3.217 3.216 3.216 0 003.216 3.217zm0-4.289a1.072 1.072 0 11-1.072 1.072 1.072 1.072 0 011.072-1.072z"/><path data-name="Path 8361" d="M28.09 57.896a3.216 3.216 0 103.216 3.216 3.216 3.216 0 00-3.216-3.216zm0 4.289a1.072 1.072 0 111.072-1.072 1.072 1.072 0 01-1.072 1.072z"/><path data-name="Path 8362" d="M50.606 49.319a3.216 3.216 0 103.216 3.216 3.216 3.216 0 00-3.216-3.216zm0 4.289a1.072 1.072 0 111.072-1.072 1.072 1.072 0 01-1.072 1.072z"/><path data-name="Path 8363" d="M13.617 53.608a3.753 3.753 0 103.753 3.753 3.753 3.753 0 00-3.753-3.753zm0 5.361a1.608 1.608 0 111.608-1.608 1.61 1.61 0 01-1.608 1.608z"/><path data-name="Path 8364" d="M48.998 26.804a3.753 3.753 0 103.753 3.753 3.753 3.753 0 00-3.753-3.753zm0 5.361a1.608 1.608 0 111.608-1.608 1.61 1.61 0 01-1.608 1.608z"/></g></svg>