<svg xmlns="http://www.w3.org/2000/svg" width="61.094" height="14.678" viewBox="0 0 61.094 14.678">
  <path id="Path_8380" data-name="Path 8380" d="M1.523-14.346H3.418v6.992l6.992-6.992H13.1L7.129-8.564,13.262,0H10.732L5.713-7.2,3.418-5V0H1.523ZM29.409-8.77a7.433,7.433,0,0,0,1.279-1.064,2.2,2.2,0,0,0,.576-1.475,1.565,1.565,0,0,0-.42-1.094,1.46,1.46,0,0,0-1.133-.459,1.591,1.591,0,0,0-1.5.723,1.589,1.589,0,0,0-.215.811,2.194,2.194,0,0,0,.327,1.143A10.567,10.567,0,0,0,29.409-8.77ZM28.96-1.211a3.4,3.4,0,0,0,1.865-.5,4.073,4.073,0,0,0,1.2-1.113L28.784-6.777a9.872,9.872,0,0,0-1.8,1.406,2.61,2.61,0,0,0-.645,1.787,2.052,2.052,0,0,0,.835,1.758A2.951,2.951,0,0,0,28.96-1.211ZM27.808-7.979a7.372,7.372,0,0,1-1.216-1.758,3.468,3.468,0,0,1-.308-1.377,3.076,3.076,0,0,1,.938-2.3,3.443,3.443,0,0,1,2.51-.913,3.134,3.134,0,0,1,2.334.85,2.788,2.788,0,0,1,.84,2.031,3.637,3.637,0,0,1-.869,2.412,8.179,8.179,0,0,1-1.7,1.4l2.617,3.125q.264-.781.366-1.167a10.993,10.993,0,0,0,.21-1.079H35.2a10.66,10.66,0,0,1-.664,2.642q-.5,1.265-.5,1.021L36.587,0H34.321L32.974-1.641a7.052,7.052,0,0,1-1.465,1.27,5.066,5.066,0,0,1-2.676.7A4.024,4.024,0,0,1,25.581-.874a4.111,4.111,0,0,1-1.016-2.72,3.917,3.917,0,0,1,.986-2.725A10.81,10.81,0,0,1,27.808-7.979Zm21.06-6.367h2.783L55.772-2.217l4.092-12.129h2.754V0H60.772V-8.467q0-.439.02-1.455t.02-2.178L56.719,0H54.8L50.674-12.1v.439q0,.527.024,1.606t.024,1.587V0H48.868Z" transform="translate(-1.523 14.346)" fill="#163045"/>
</svg>
